<mxfile host="app.diagrams.net" modified="2024-05-27T20:13:51.632Z" agent="Mozilla/5.0 (Windows NT 10.0; Win64; x64) AppleWebKit/537.36 (KHTML, like Gecko) Chrome/125.0.0.0 Safari/537.36" etag="zBg7mM6Higk0yM73dCYA" version="24.0.7" type="device">
  <diagram name="Page-1" id="TNsti-CCrty4biNya1Eu">
    <mxGraphModel dx="1615" dy="803" grid="1" gridSize="10" guides="1" tooltips="1" connect="1" arrows="1" fold="1" page="1" pageScale="1" pageWidth="850" pageHeight="1100" math="0" shadow="0">
      <root>
        <mxCell id="0" />
        <mxCell id="1" parent="0" />
        <mxCell id="ybJYUQEPT-8lFcghtD5--25" value="" style="rounded=0;whiteSpace=wrap;html=1;" vertex="1" parent="1">
          <mxGeometry x="160" y="60" width="590" height="390" as="geometry" />
        </mxCell>
        <mxCell id="ybJYUQEPT-8lFcghtD5--12" style="edgeStyle=orthogonalEdgeStyle;rounded=0;orthogonalLoop=1;jettySize=auto;html=1;exitX=0;exitY=0.5;exitDx=0;exitDy=0;entryX=1;entryY=0.25;entryDx=0;entryDy=0;startArrow=classic;startFill=1;endArrow=none;endFill=0;" edge="1" parent="1" source="ybJYUQEPT-8lFcghtD5--2" target="ybJYUQEPT-8lFcghtD5--9">
          <mxGeometry relative="1" as="geometry" />
        </mxCell>
        <mxCell id="ybJYUQEPT-8lFcghtD5--27" value="/theme&lt;div&gt;/block&lt;/div&gt;" style="edgeLabel;html=1;align=center;verticalAlign=middle;resizable=0;points=[];" vertex="1" connectable="0" parent="ybJYUQEPT-8lFcghtD5--12">
          <mxGeometry x="0.0472" y="1" relative="1" as="geometry">
            <mxPoint as="offset" />
          </mxGeometry>
        </mxCell>
        <mxCell id="ybJYUQEPT-8lFcghtD5--13" style="edgeStyle=orthogonalEdgeStyle;rounded=0;orthogonalLoop=1;jettySize=auto;html=1;exitX=0.5;exitY=1;exitDx=0;exitDy=0;entryX=0.5;entryY=0;entryDx=0;entryDy=0;" edge="1" parent="1" source="ybJYUQEPT-8lFcghtD5--2" target="ybJYUQEPT-8lFcghtD5--3">
          <mxGeometry relative="1" as="geometry" />
        </mxCell>
        <mxCell id="ybJYUQEPT-8lFcghtD5--2" value="&lt;font color=&quot;#f7f7f7&quot;&gt;Layout API&lt;/font&gt;" style="rounded=0;whiteSpace=wrap;html=1;fillColor=#7F00FF;gradientColor=none;" vertex="1" parent="1">
          <mxGeometry x="510" y="139.62" width="120" height="60" as="geometry" />
        </mxCell>
        <mxCell id="ybJYUQEPT-8lFcghtD5--3" value="&lt;font color=&quot;#f7f7f7&quot;&gt;MongoDB&lt;/font&gt;" style="rounded=0;whiteSpace=wrap;html=1;fillColor=#7F00FF;gradientColor=none;" vertex="1" parent="1">
          <mxGeometry x="510" y="245" width="120" height="60" as="geometry" />
        </mxCell>
        <mxCell id="ybJYUQEPT-8lFcghtD5--14" style="edgeStyle=orthogonalEdgeStyle;rounded=0;orthogonalLoop=1;jettySize=auto;html=1;exitX=0;exitY=0.5;exitDx=0;exitDy=0;entryX=1;entryY=0.75;entryDx=0;entryDy=0;startArrow=classic;startFill=1;endArrow=none;endFill=0;" edge="1" parent="1" source="ybJYUQEPT-8lFcghtD5--4" target="ybJYUQEPT-8lFcghtD5--9">
          <mxGeometry relative="1" as="geometry" />
        </mxCell>
        <mxCell id="ybJYUQEPT-8lFcghtD5--28" value="/youtube" style="edgeLabel;html=1;align=center;verticalAlign=middle;resizable=0;points=[];" vertex="1" connectable="0" parent="ybJYUQEPT-8lFcghtD5--14">
          <mxGeometry x="-0.0909" y="2" relative="1" as="geometry">
            <mxPoint as="offset" />
          </mxGeometry>
        </mxCell>
        <mxCell id="ybJYUQEPT-8lFcghtD5--4" value="&lt;font color=&quot;#f7f7f7&quot;&gt;Youtube&amp;nbsp;&lt;/font&gt;&lt;div&gt;&lt;font color=&quot;#f7f7f7&quot;&gt;Downloader&lt;/font&gt;&lt;/div&gt;" style="rounded=0;whiteSpace=wrap;html=1;fillColor=#7F00FF;gradientColor=none;" vertex="1" parent="1">
          <mxGeometry x="510" y="350" width="120" height="60" as="geometry" />
        </mxCell>
        <mxCell id="ybJYUQEPT-8lFcghtD5--6" value="" style="shape=image;verticalLabelPosition=bottom;labelBackgroundColor=default;verticalAlign=top;aspect=fixed;imageAspect=0;image=https://banner2.cleanpng.com/20180920/pvl/kisspng-docker-application-software-software-deployment-mi-docker-5ba331e62a2ce0.4850087515374217981728.jpg;" vertex="1" parent="1">
          <mxGeometry x="630" y="120" width="75" height="50" as="geometry" />
        </mxCell>
        <mxCell id="ybJYUQEPT-8lFcghtD5--7" value="" style="shape=image;verticalLabelPosition=bottom;labelBackgroundColor=default;verticalAlign=top;aspect=fixed;imageAspect=0;image=https://banner2.cleanpng.com/20180920/pvl/kisspng-docker-application-software-software-deployment-mi-docker-5ba331e62a2ce0.4850087515374217981728.jpg;" vertex="1" parent="1">
          <mxGeometry x="640" y="220" width="75" height="50" as="geometry" />
        </mxCell>
        <mxCell id="ybJYUQEPT-8lFcghtD5--8" value="" style="shape=image;verticalLabelPosition=bottom;labelBackgroundColor=default;verticalAlign=top;aspect=fixed;imageAspect=0;image=https://banner2.cleanpng.com/20180920/pvl/kisspng-docker-application-software-software-deployment-mi-docker-5ba331e62a2ce0.4850087515374217981728.jpg;" vertex="1" parent="1">
          <mxGeometry x="640" y="330" width="75" height="50" as="geometry" />
        </mxCell>
        <mxCell id="ybJYUQEPT-8lFcghtD5--9" value="&lt;font color=&quot;#f7f7f7&quot;&gt;Nginx&lt;/font&gt;" style="rounded=0;whiteSpace=wrap;html=1;fillColor=#3399FF;gradientColor=none;" vertex="1" parent="1">
          <mxGeometry x="260" y="245" width="120" height="60" as="geometry" />
        </mxCell>
        <mxCell id="ybJYUQEPT-8lFcghtD5--11" value="" style="edgeStyle=orthogonalEdgeStyle;rounded=0;orthogonalLoop=1;jettySize=auto;html=1;startArrow=classic;startFill=1;endArrow=none;endFill=0;" edge="1" parent="1" source="ybJYUQEPT-8lFcghtD5--10" target="ybJYUQEPT-8lFcghtD5--9">
          <mxGeometry relative="1" as="geometry" />
        </mxCell>
        <mxCell id="ybJYUQEPT-8lFcghtD5--10" value="&lt;font color=&quot;#f7f7f7&quot;&gt;React App&lt;/font&gt;" style="rounded=0;whiteSpace=wrap;html=1;fillColor=#7F00FF;gradientColor=none;" vertex="1" parent="1">
          <mxGeometry x="260" y="150" width="120" height="60" as="geometry" />
        </mxCell>
        <mxCell id="ybJYUQEPT-8lFcghtD5--15" value="" style="shape=image;verticalLabelPosition=bottom;labelBackgroundColor=default;verticalAlign=top;aspect=fixed;imageAspect=0;image=https://cdn.iconscout.com/icon/free/png-256/free-nginx-3521604-2945048.png;" vertex="1" parent="1">
          <mxGeometry x="300" y="315" width="45" height="45" as="geometry" />
        </mxCell>
        <mxCell id="ybJYUQEPT-8lFcghtD5--16" value="" style="shape=image;verticalLabelPosition=bottom;labelBackgroundColor=default;verticalAlign=top;aspect=fixed;imageAspect=0;image=https://banner2.cleanpng.com/20180920/pvl/kisspng-docker-application-software-software-deployment-mi-docker-5ba331e62a2ce0.4850087515374217981728.jpg;" vertex="1" parent="1">
          <mxGeometry x="340" y="100" width="75" height="50" as="geometry" />
        </mxCell>
        <mxCell id="ybJYUQEPT-8lFcghtD5--17" value="" style="shape=image;verticalLabelPosition=bottom;labelBackgroundColor=default;verticalAlign=top;aspect=fixed;imageAspect=0;image=https://banner2.cleanpng.com/20180507/oqw/kisspng-react-javascript-library-github-backbone-5af0ed697cf665.2293214715257388575119.jpg;" vertex="1" parent="1">
          <mxGeometry x="260" y="100" width="50" height="50" as="geometry" />
        </mxCell>
        <mxCell id="ybJYUQEPT-8lFcghtD5--19" value="" style="shape=image;verticalLabelPosition=bottom;labelBackgroundColor=default;verticalAlign=top;aspect=fixed;imageAspect=0;image=https://static-00.iconduck.com/assets.00/node-js-icon-454x512-nztofx17.png;" vertex="1" parent="1">
          <mxGeometry x="586" y="89.99999999999997" width="44" height="49.62" as="geometry" />
        </mxCell>
        <mxCell id="ybJYUQEPT-8lFcghtD5--20" value="" style="shape=image;verticalLabelPosition=bottom;labelBackgroundColor=default;verticalAlign=top;aspect=fixed;imageAspect=0;image=https://i.pngimg.me/thumb/f/720/m2i8Z5b1G6K9G6m2.jpg;" vertex="1" parent="1">
          <mxGeometry x="635.6" y="280" width="42.54" height="40" as="geometry" />
        </mxCell>
        <mxCell id="ybJYUQEPT-8lFcghtD5--21" value="" style="shape=image;verticalLabelPosition=bottom;labelBackgroundColor=default;verticalAlign=top;aspect=fixed;imageAspect=0;image=https://uxwing.com/wp-content/themes/uxwing/download/brands-and-social-media/flask-logo-icon.png;" vertex="1" parent="1">
          <mxGeometry x="631.5" y="360" width="92" height="92" as="geometry" />
        </mxCell>
        <mxCell id="ybJYUQEPT-8lFcghtD5--23" value="" style="shape=image;verticalLabelPosition=bottom;labelBackgroundColor=default;verticalAlign=top;aspect=fixed;imageAspect=0;image=https://cdn.icon-icons.com/icons2/2699/PNG/512/expressjs_logo_icon_169185.png;" vertex="1" parent="1">
          <mxGeometry x="540" y="100" width="30" height="30" as="geometry" />
        </mxCell>
        <mxCell id="ybJYUQEPT-8lFcghtD5--26" style="edgeStyle=orthogonalEdgeStyle;rounded=0;orthogonalLoop=1;jettySize=auto;html=1;exitX=0.96;exitY=0.65;exitDx=0;exitDy=0;exitPerimeter=0;entryX=0;entryY=0.5;entryDx=0;entryDy=0;" edge="1" parent="1" source="ybJYUQEPT-8lFcghtD5--24" target="ybJYUQEPT-8lFcghtD5--9">
          <mxGeometry relative="1" as="geometry" />
        </mxCell>
        <mxCell id="ybJYUQEPT-8lFcghtD5--24" value="" style="sketch=0;pointerEvents=1;shadow=0;dashed=0;html=1;strokeColor=none;labelPosition=center;verticalLabelPosition=bottom;verticalAlign=top;align=center;fillColor=#505050;shape=mxgraph.mscae.intune.user_group" vertex="1" parent="1">
          <mxGeometry x="50" y="250" width="50" height="37" as="geometry" />
        </mxCell>
        <mxCell id="ybJYUQEPT-8lFcghtD5--29" value="" style="shape=image;verticalLabelPosition=bottom;labelBackgroundColor=default;verticalAlign=top;aspect=fixed;imageAspect=0;image=https://upload.wikimedia.org/wikipedia/commons/thumb/9/93/Amazon_Web_Services_Logo.svg/1200px-Amazon_Web_Services_Logo.svg.png;" vertex="1" parent="1">
          <mxGeometry x="705" width="83.57" height="50" as="geometry" />
        </mxCell>
      </root>
    </mxGraphModel>
  </diagram>
</mxfile>
